<?xml version="1.0" encoding="utf-8"?>
<!-- Generator: Adobe Illustrator 22.1.0, SVG Export Plug-In . SVG Version: 6.00 Build 0)  -->
<svg version="1.1" id="图层_1" xmlns="http://www.w3.org/2000/svg" xmlns:xlink="http://www.w3.org/1999/xlink" x="0px" y="0px"
	 viewBox="0 0 100 100" style="enable-background:new 0 0 100 100;" xml:space="preserve">
<style type="text/css">
	.st0{fill:#24292E;}
</style>
<g id="图层_x0020_1">
	<path class="st0" d="M14.4,92.2c0.4-8.2,0.6-11.8,4.3-16.9c3.7,3.9,7.7,7.1,12.4,9.1c1,0.4,2.1,0.8,3.1,1.2
		C27.4,91.6,24.1,91.7,14.4,92.2L14.4,92.2z M51.4,37.1c-1.2,0.8-2.3,1.7-3.3,2.7c-1.6,1.7-2.9,3.6-3.6,5.5l4.5-4.3
		C49.8,40.1,50.9,38.3,51.4,37.1L51.4,37.1z M61.8,27.4c-1.8,0.3-3.3,0.7-4.6,1.2c1.4,0.4,2.7,0.8,4.6,1.4
		C61.8,29.1,61.8,28.3,61.8,27.4z M72,22.6l1.3,0.5l1-1c-1.4-0.7-2.9-1.3-4.5-1.8L72,22.6L72,22.6z M67,19.6c-2.5-0.6-5.1-1-7.9-1.2
		c1.7-1.3,5.4-2,7.9-2.6c-4.2-1.7-11.5-1.9-17.5,0c-0.3,1-1,2.6-1.8,3.3c-1.1,1-2.1,1.8-2.9,2.6c6.8-3,14-3.2,21.1-1.2L67,19.6
		L67,19.6z M20.1,19.2c0.8,5.3-1.3,13.8-1.7,14.9c-0.4,1.1-1,2.3-2.7,6.8c-1.8,4.5-1.6,13-0.4,15.7c-2.9-2-6.5-3.2-9.9-2
		c5.8,2.9,9,9.4,12.8,14.4c8.8,11.5,19.6,16.8,33.5,13c6.9-1.9,16.8-15.2,10.9-20.3C52.3,67.5,41.4,60.2,40.9,49
		c-0.3-8.2,8.6-16.4,17.2-17.5c-3.5-1.1-4.7-1.6-9.2-0.9c4.1-3,7.1-5.3,14.1-6c0.4-0.8,1.1-1.3,1.8-1.9c-8.7-2.3-21.4-2-32.5,12.7
		c3.3-7.3,5.7-10.2,13.9-18.2c2.2-2.1,1.7-5.2,1.5-7.4c-2.3,3.8-6.5,5.9-12.3,8.4c-4.4,1.9-8.3,5.1-11.2,9.2
		C23.4,24.2,22.6,21.4,20.1,19.2L20.1,19.2z M61.7,79c1-0.4,2.1-0.9,3.1-1.4c-2.9,4.7-10,10-22.7,11.7c13.6,3.6,26.6,1.5,34.8-6.9
		c-0.7,1.2-1.3,2.4-2.1,3.5C84.8,80,97.9,63,88.5,46.5c1.6,1.3,2.9,2.8,4,5c0.1-7.8-2.3-14.9-6.8-20.5l-2.6,2.7l4.9,4.8l-3.6,4.4
		c-1.8,2.2-3,2.2-5.2,2.2l-3.1,0c-0.1,1-0.5,2-1.3,2.7l0,2.3c0,2.2-1.3,4.3-3.4,4.9l0,0c-2.6,0.8-4.7,2.3-6.6,4.3
		c1.3,1.1,2.1,2.5,2.6,4.1c0.7,2.6,0.3,5.4-0.9,8.2C65.4,74.3,63.6,76.8,61.7,79L61.7,79z M44.4,49.5l6.6-6.3c1.3-1.3,3.3-4.5,4-6.9
		c0.2-0.5,0.8-1,1.7-1l4.3-0.1l0.2-0.8c0.1-0.4,0.3-0.5,0.7-0.5l2.8,0c0.1,0,0.3-0.1,0.3-0.3l0-6.2c0-1.2,0-1.8,0.9-2.6l2-1.6l5,5.1
		l12.7-12.5l0.8-3.1c0.3-1.2,1.2-1.2,2.1-0.4l3,2.6l2.6,3c0.8,0.9,0.9,1.8-0.4,2.1L90.7,21L78.2,33.7l5.1,5l-1.6,2
		c-0.8,1-1.4,0.9-2.6,0.9l-6.2,0c-0.1,0-0.3,0.1-0.3,0.3l0,2.8c0,0.4-0.1,0.5-0.5,0.7l-0.8,0.2L71.3,50c0,0.9-0.5,1.6-1,1.7
		c-2.4,0.7-5.6,2.7-6.9,4L60,59.2c-3.9,2-7.9,1.7-11.5-1.5c-2-1.8-3.5-4.4-4-7.2C44.5,50.2,44.4,49.8,44.4,49.5L44.4,49.5z"/>
</g>
</svg>
